<?xml version="1.0" standalone="no"?>
<!DOCTYPE svg PUBLIC "-//W3C//DTD SVG 20010904//EN"
 "http://www.w3.org/TR/2001/REC-SVG-20010904/DTD/svg10.dtd">
<svg version="1.0" xmlns="http://www.w3.org/2000/svg"
 width="628.000000pt" height="628.000000pt" viewBox="0 0 628.000000 628.000000"
 preserveAspectRatio="xMidYMid meet">
<metadata>
Created by potrace 1.11, written by Peter Selinger 2001-2013
</metadata>
<g transform="translate(0.000000,628.000000) scale(0.100000,-0.100000)"
fill="#000000" stroke="none">
<path d="M2856 6243 c-3 -21 -8 -50 -11 -65 -23 -128 -47 -263 -51 -293 -2
-16 -6 -41 -9 -55 -3 -14 -14 -81 -25 -149 -11 -68 -23 -127 -25 -131 -2 -4
-21 -10 -42 -13 -89 -14 -181 -37 -311 -78 -76 -25 -95 -28 -105 -17 -7 7 -68
78 -136 158 -68 80 -144 169 -170 199 -25 30 -59 70 -76 90 -16 19 -46 53 -65
74 l-36 39 -64 -38 c-36 -21 -81 -48 -101 -59 -200 -112 -299 -172 -298 -180
0 -5 57 -165 128 -355 l127 -345 -45 -40 c-55 -48 -203 -196 -249 -248 l-32
-38 -98 35 c-509 181 -613 218 -616 215 -2 -2 -15 -24 -29 -49 -14 -25 -73
-127 -131 -228 -58 -100 -106 -186 -106 -190 0 -4 12 -16 26 -27 14 -10 35
-27 47 -38 12 -11 42 -36 67 -56 25 -20 58 -48 75 -62 16 -15 76 -64 131 -110
56 -46 123 -102 149 -124 26 -22 54 -44 62 -49 11 -6 13 -18 8 -45 -4 -20 -10
-40 -15 -46 -8 -11 -75 -257 -87 -325 l-9 -45 -59 -12 c-33 -7 -71 -14 -85
-16 -76 -14 -177 -32 -363 -68 -114 -21 -212 -39 -217 -39 -6 0 -10 -107 -10
-275 l0 -275 23 -1 c12 0 29 -2 37 -4 8 -2 33 -6 55 -9 22 -4 51 -9 64 -12 13
-3 130 -23 260 -45 130 -22 250 -43 267 -46 29 -5 32 -9 38 -54 4 -27 7 -50 6
-51 -1 -9 55 -206 76 -271 15 -43 22 -82 18 -86 -5 -4 -70 -59 -144 -121 -74
-63 -137 -117 -140 -120 -3 -3 -66 -57 -140 -119 -74 -63 -139 -118 -144 -122
-6 -5 -3 -16 7 -27 9 -10 17 -21 17 -24 0 -4 26 -51 58 -105 32 -54 61 -105
65 -113 4 -8 17 -31 28 -50 12 -19 33 -55 47 -80 46 -83 41 -78 81 -64 20 7
177 65 349 128 173 64 319 116 326 116 7 0 31 -21 53 -47 54 -64 146 -156 215
-218 l57 -51 -39 -112 c-22 -62 -58 -163 -80 -224 -23 -62 -43 -120 -45 -128
-2 -8 -22 -64 -44 -124 -23 -60 -41 -113 -41 -117 0 -5 33 -27 73 -49 39 -23
79 -45 87 -50 53 -33 151 -90 154 -90 3 0 38 -20 79 -44 l75 -45 69 82 c70 84
75 91 138 167 21 25 57 68 80 95 23 28 77 91 119 142 l75 92 102 -34 c56 -19
154 -46 218 -61 63 -14 118 -27 122 -30 3 -2 12 -38 19 -81 8 -43 14 -82 15
-88 12 -56 46 -239 50 -270 4 -22 10 -56 15 -75 5 -19 11 -51 14 -70 3 -19 10
-62 16 -95 5 -33 10 -61 10 -62 0 -2 124 -3 275 -3 l275 0 1 23 c0 12 2 29 4
37 4 23 24 130 30 170 3 19 14 85 25 145 11 61 22 128 26 150 3 22 7 45 8 50
2 6 7 33 11 60 5 28 10 53 11 58 1 4 2 18 3 31 1 20 8 25 49 31 58 10 47 8
167 38 55 14 133 37 172 51 58 20 74 22 80 12 5 -8 31 -40 59 -72 28 -33 133
-156 234 -274 100 -118 184 -217 186 -219 3 -4 11 1 269 148 99 57 186 109
193 115 10 10 4 36 -32 132 -25 65 -74 200 -111 299 -36 99 -70 189 -75 200
-4 11 -13 34 -19 52 -10 32 -9 33 150 193 l161 160 336 -121 c185 -66 344
-123 354 -126 15 -5 54 54 176 267 11 19 41 73 67 118 28 49 44 87 38 90 -17
12 -108 87 -118 98 -5 6 -32 28 -60 50 -27 21 -55 44 -62 50 -6 6 -83 71 -171
143 l-159 132 30 92 c28 87 60 205 73 272 3 17 7 37 9 45 2 8 4 20 4 26 1 7
22 15 49 19 26 5 52 9 57 11 8 1 160 29 380 69 17 3 62 12 100 20 39 7 91 17
118 20 l47 7 0 273 0 273 -47 7 c-27 5 -52 9 -58 11 -5 1 -26 5 -45 8 -19 4
-46 8 -60 11 -14 2 -45 7 -70 11 -24 3 -47 7 -50 9 -3 2 -27 6 -55 10 -27 3
-120 19 -205 33 l-154 27 -9 40 c-26 122 -62 259 -84 322 -14 39 -24 76 -22
82 2 5 74 69 159 141 85 73 179 153 209 178 30 26 70 61 90 77 95 80 115 103
104 116 -6 8 -20 30 -30 49 -83 147 -218 378 -228 389 -11 11 -21 10 -67 -8
-29 -12 -186 -70 -348 -130 l-295 -109 -24 26 c-55 63 -182 191 -240 244 l-64
57 48 135 c25 74 82 233 125 353 l77 218 -31 20 c-103 67 -432 252 -441 248
-5 -3 -113 -130 -240 -284 -127 -154 -237 -279 -246 -279 -9 0 -32 6 -51 14
-34 15 -202 64 -248 73 -14 3 -29 6 -35 7 -5 2 -31 6 -57 11 -29 4 -48 13 -49
21 -1 8 -2 17 -3 22 -1 4 -6 27 -10 52 -5 25 -10 54 -12 65 -35 180 -47 244
-50 265 -2 14 -11 59 -19 100 -17 89 -22 119 -31 177 l-6 43 -273 0 -272 0 -7
-37z m420 -1000 c27 -20 51 -40 54 -43 22 -26 86 -62 135 -74 68 -18 101 -45
115 -95 18 -67 14 -81 -24 -81 -44 0 -66 -22 -68 -68 0 -20 -2 -41 -3 -47 -2
-5 -3 -20 -4 -32 0 -13 -5 -23 -10 -23 -13 0 -156 146 -231 235 -71 86 -130
165 -150 204 -12 23 -12 23 34 18 25 -3 51 -9 56 -12 9 -5 15 23 11 48 -3 19
41 4 85 -30z m-514 -56 c24 -18 54 -40 69 -49 32 -21 139 -118 139 -127 0 -4
-57 -45 -127 -91 -71 -46 -133 -89 -139 -95 -7 -5 -29 -24 -50 -41 -111 -91
-213 -208 -274 -316 -26 -48 -38 -59 -68 -67 -55 -15 -242 -21 -242 -8 0 10
48 98 59 107 3 3 34 42 69 88 l63 83 -33 13 c-18 7 -45 17 -60 22 -27 9 -26
10 57 72 47 35 103 73 125 84 l40 22 -31 32 -31 32 41 30 c23 17 87 56 142 87
l101 57 -28 29 c-22 23 -25 32 -16 41 7 7 12 9 12 6 0 -3 19 0 43 7 66 21 92
18 139 -18z m1173 -368 c82 -53 270 -193 279 -207 2 -4 8 -50 11 -102 4 -52 8
-102 10 -110 1 -8 6 -40 10 -70 9 -77 24 -132 41 -150 7 -9 16 -36 18 -61 l5
-46 -47 -12 c-50 -13 -77 -31 -104 -70 l-17 -24 -6 26 c-14 54 7 135 44 174
21 22 21 30 17 185 -5 179 -9 204 -37 213 -40 13 -175 109 -226 163 -46 47
-93 116 -93 137 0 12 22 2 95 -46z m-844 -16 c56 -109 230 -253 413 -341 87
-42 91 -43 117 -28 15 9 29 16 32 16 2 0 15 -24 27 -52 12 -29 37 -78 56 -109
32 -53 37 -57 68 -54 47 3 89 32 130 89 23 32 36 44 41 35 5 -6 10 -53 12
-103 5 -104 9 -94 -100 -228 -72 -87 -107 -148 -107 -182 0 -35 38 -85 87
-117 44 -27 168 -71 237 -83 16 -3 29 -6 31 -8 1 -2 18 -30 38 -63 38 -64 53
-107 42 -124 -10 -17 -99 22 -173 77 -112 83 -193 115 -317 125 -45 4 -49 13
-60 142 -3 39 -8 84 -10 100 -3 17 -7 46 -10 65 -16 111 -41 160 -81 160 -27
0 -60 -15 -82 -37 -7 -7 -17 -13 -21 -13 -26 0 -100 107 -170 248 -34 67 -104
140 -172 179 -72 41 -209 72 -331 75 l-53 1 85 42 c175 86 225 125 236 182 8
40 16 42 35 6z m-1056 -134 c30 -11 55 -23 55 -27 -1 -4 -30 -27 -65 -53 -91
-64 -199 -161 -275 -247 -36 -40 -70 -78 -76 -85 -33 -37 -148 -214 -186 -287
-76 -143 -152 -358 -174 -489 -3 -14 -9 -51 -15 -81 -23 -119 -19 -440 6 -580
56 -307 178 -578 373 -825 155 -196 412 -399 637 -504 128 -60 312 -121 415
-137 19 -3 37 -7 40 -9 3 -2 33 -6 65 -10 33 -4 74 -9 90 -11 39 -7 290 -6
335 0 19 3 58 8 85 11 28 4 57 8 65 10 8 2 31 7 50 10 57 10 210 55 290 87
278 109 558 312 735 533 22 28 43 52 46 55 18 16 117 175 163 262 78 148 153
361 172 488 3 19 7 42 9 50 20 71 27 384 12 514 -41 368 -209 728 -472 1015
-82 90 -147 216 -131 257 8 20 57 -18 170 -131 320 -320 517 -736 561 -1185 6
-61 7 -308 1 -351 -3 -19 -8 -56 -11 -84 -5 -42 -21 -126 -39 -215 -16 -73
-85 -260 -136 -365 -192 -398 -516 -718 -920 -909 -124 -58 -321 -124 -430
-142 -14 -2 -36 -7 -50 -9 -63 -13 -80 -15 -150 -22 -922 -85 -1784 501 -2034
1384 -14 48 -27 99 -30 113 -2 14 -9 45 -14 70 -6 25 -14 70 -18 100 -10 70
-11 431 -1 490 25 152 37 210 71 324 108 363 345 709 651 950 39 30 71 55 72
56 1 0 27 -9 58 -21z m973 -477 c116 -57 248 -212 349 -410 29 -57 62 -134 73
-171 15 -50 32 -79 70 -120 28 -30 50 -58 50 -64 0 -20 -44 -68 -84 -92 -64
-38 -90 -33 -147 24 -46 46 -52 50 -114 56 -52 6 -69 12 -79 29 -15 23 -52
169 -55 213 -1 8 -11 11 -31 7 -28 -6 -30 -4 -31 22 -1 16 -2 43 -4 59 -1 17
-3 40 -4 53 l-1 23 -22 -21 c-25 -23 -45 -26 -45 -7 0 6 -3 32 -6 57 -14 102
-29 359 -21 372 7 11 36 3 102 -30z m-419 4 c73 -8 119 -32 158 -83 40 -53 62
-128 64 -218 2 -106 43 -182 177 -334 89 -101 106 -137 98 -205 l-5 -49 27 26
c16 15 30 27 33 27 3 0 16 -25 29 -55 22 -52 40 -64 40 -27 0 38 16 46 49 26
31 -18 40 -35 44 -81 1 -17 4 -19 14 -11 7 6 13 19 13 29 0 20 8 24 26 11 11
-7 11 -119 0 -233 -5 -57 -10 -88 -32 -198 -9 -46 -47 -147 -79 -213 -121
-246 -311 -402 -607 -496 -102 -33 -115 -36 -223 -53 -38 -6 -81 -13 -95 -16
-14 -3 -157 -7 -318 -8 l-292 -3 -6 24 c-8 31 1 54 21 54 36 0 142 44 170 70
l30 29 -2 868 c-1 477 -2 879 -2 893 -1 38 -105 133 -165 151 -60 18 -79 45
-41 59 15 6 113 13 218 16 106 4 193 7 194 8 5 4 416 -3 462 -8z m1461 -256
c7 -13 4 -22 -10 -35 -28 -25 -25 -40 13 -66 17 -13 35 -27 39 -33 13 -19 -5
-36 -37 -36 -40 0 -83 32 -102 77 -12 30 -12 38 2 67 25 53 74 66 95 26z
m-493 -656 c4 -11 -1 -22 -13 -31 -16 -12 -20 -11 -31 3 -9 13 -10 21 -2 31
16 18 38 16 46 -3z m834 -99 c97 -8 174 -26 174 -42 0 -7 -19 -32 -42 -56 -35
-36 -48 -44 -80 -44 -21 -1 -78 -13 -128 -28 -49 -15 -99 -29 -110 -31 -11 -3
-27 -7 -35 -9 -8 -2 -17 -4 -20 -4 -3 -1 -11 -5 -19 -10 -15 -10 -3 -40 32
-78 18 -21 19 -23 3 -23 -23 0 -119 -41 -128 -54 -4 -6 8 -27 27 -46 l35 -36
-56 -43 -56 -44 41 -41 c43 -44 49 -56 29 -56 -7 0 -28 -9 -46 -20 -33 -20
-33 -20 -16 -49 9 -16 14 -35 11 -42 -4 -12 -114 -151 -337 -429 -99 -124
-442 -545 -475 -583 -62 -72 -81 -67 -147 38 -29 47 -70 111 -90 143 -20 31
-43 68 -51 82 -8 14 -45 79 -84 145 -70 121 -113 207 -113 224 0 5 10 13 23
16 28 9 76 30 157 69 36 17 68 32 72 34 4 2 24 -23 44 -55 70 -110 105 -153
119 -146 61 36 610 773 722 970 28 49 -18 120 -89 137 -15 3 -34 13 -42 22
-22 21 -21 70 2 79 9 3 91 9 182 12 91 3 166 7 167 8 5 3 251 -3 324 -10z m58
-233 c36 -27 61 -75 61 -119 0 -35 -39 -118 -74 -160 -25 -30 -26 -34 -12 -49
9 -8 17 -20 17 -25 1 -5 2 -15 3 -21 5 -30 -53 -104 -112 -146 -34 -25 -62
-23 -95 6 -23 21 -18 45 48 202 53 126 61 155 70 265 3 40 10 64 21 72 18 13
23 12 73 -25z m-215 -14 c-18 -32 -27 -39 -35 -27 -11 18 1 39 23 39 12 0 17
-4 12 -12z m-28 -140 c7 -10 -20 -38 -38 -38 -10 0 -11 34 -1 43 10 11 31 8
39 -5z m-50 -139 c10 -17 -31 -53 -52 -45 -15 6 -15 9 6 31 26 28 35 30 46 14z
m-52 -168 c3 -4 -1 -17 -9 -27 -16 -23 -40 -7 -29 19 7 18 29 23 38 8z"/>
<path d="M2335 4006 c-18 -27 -19 -97 -10 -411 4 -137 7 -295 6 -316 -1 -15
-17 -16 -128 -15 -71 0 -140 -2 -155 -7 -49 -13 -75 -101 -45 -153 7 -12 37
-41 67 -64 127 -99 213 -211 246 -320 14 -46 28 -145 26 -190 -7 -217 -1 -249
46 -251 81 -5 141 11 208 54 199 126 299 380 289 737 -2 85 -6 166 -8 180 -3
14 -8 48 -12 75 -23 181 -106 389 -200 506 -76 94 -197 179 -277 194 -32 6
-38 4 -53 -19z m368 -820 c32 -5 50 -14 58 -27 16 -31 5 -45 -50 -65 -104 -37
-123 -100 -69 -228 17 -39 43 -106 58 -149 26 -72 27 -80 14 -118 -27 -77
-121 -199 -153 -199 -21 0 -76 101 -181 335 -64 142 -134 273 -158 293 -15 13
-57 44 -94 68 -38 24 -68 50 -68 56 0 29 18 37 85 40 123 5 510 1 558 -6z"/>
</g>
</svg>
